<svg width="136" height="105" viewBox="0 0 136 105" fill="none" xmlns="http://www.w3.org/2000/svg">
<path d="M67.1802 104.247C67.3169 104.384 67.5385 104.384 67.6752 104.247L69.9026 102.02C70.0393 101.883 70.0393 101.662 69.9026 101.525C69.7659 101.388 69.5443 101.388 69.4076 101.525L67.4277 103.505L65.4478 101.525C65.3111 101.388 65.0895 101.388 64.9528 101.525C64.8162 101.662 64.8162 101.883 64.9528 102.02L67.1802 104.247ZM1 69.3317H1.35H1ZM118.11 45.7171L117.964 46.0353L118.11 45.7171ZM107.284 77.8732L107.268 78.2228L107.276 78.2232H107.284V77.8732ZM67.7777 104C67.7777 95.8075 63.5323 90.3986 57.2257 86.6938C50.9396 83.0011 42.5818 80.9834 34.2738 79.5381C30.1164 78.8148 25.9579 78.233 22.0693 77.6584C18.1764 77.0833 14.5555 76.5157 11.456 75.8202C8.35044 75.1234 5.80111 74.3048 4.03479 73.2417C2.27607 72.1832 1.35 70.9206 1.35 69.3317L0.65 69.3317C0.649998 71.2598 1.79979 72.7136 3.67383 73.8415C5.54027 74.9648 8.18061 75.8027 11.3027 76.5032C14.4307 77.2051 18.0754 77.7759 21.967 78.3509C25.8628 78.9265 30.0079 79.5065 34.1539 80.2277C42.4528 81.6715 50.7019 83.6733 56.8711 87.2974C63.0196 90.9093 67.0777 96.1144 67.0777 104H67.7777ZM1.35 69.3317C1.35 62.2715 7.27706 56.6867 16.7308 52.4258C26.1574 48.1772 38.9489 45.3143 52.3678 43.634C65.7819 41.9544 79.7988 41.4595 91.6629 41.9352C97.5949 42.1731 102.984 42.6535 107.488 43.3485C111.999 44.0445 115.598 44.9524 117.964 46.0353L118.255 45.3988C115.801 44.2753 112.125 43.3557 107.595 42.6567C103.059 41.9566 97.6418 41.4744 91.691 41.2358C79.7895 40.7585 65.7341 41.2549 52.2808 42.9394C38.8325 44.6234 25.9619 47.4975 16.4431 51.7877C6.95149 56.0656 0.65 61.8212 0.65 69.3317H1.35ZM117.964 46.0353C125.068 49.2872 129.714 52.8973 132.256 56.456C134.79 60.004 135.23 63.4889 133.962 66.5603C132.687 69.65 129.654 72.3918 125.098 74.3646C120.546 76.3354 114.506 77.5232 107.284 77.5232V78.2232C114.578 78.2232 120.717 77.0244 125.376 75.007C130.03 72.9917 133.24 70.1439 134.609 66.8275C135.986 63.4928 135.473 59.7552 132.825 56.0491C130.186 52.3539 125.42 48.6786 118.255 45.3988L117.964 46.0353ZM107.3 77.5235C91.0035 76.7728 80.4127 72.1472 72.8947 65.5284C65.3665 58.9005 60.8862 50.2467 56.8597 41.3646C52.8428 32.5037 49.2694 23.3905 43.5557 15.9773C37.8237 8.54035 29.9363 2.80602 17.2966 0.654961L17.1791 1.34504C29.6344 3.46471 37.3698 9.09806 43.0012 16.4046C48.651 23.7348 52.1816 32.7408 56.2221 41.6537C60.253 50.5453 64.7836 59.3199 72.4322 66.0538C80.0911 72.7967 90.8433 77.4662 107.268 78.2228L107.3 77.5235Z" fill="white"/>
</svg>
