<svg width="108" height="108" viewBox="0 0 108 108" fill="none" xmlns="http://www.w3.org/2000/svg">
<path d="M82.3636 33C82.3636 33 74.2357 26.721 64.6364 26L63.7713 27.708C72.4505 29.8045 76.4321 32.8092 80.5909 36.5C73.4202 32.8863 66.34 29.5 54 29.5C41.66 29.5 34.5798 32.8863 27.4091 36.5C31.5679 32.8092 36.3046 29.4737 44.2287 27.708L43.3636 26C33.2928 26.9398 25.6364 33 25.6364 33C25.6364 33 16.5582 45.9937 15 71.5C24.1508 81.9178 38.0455 82 38.0455 82L40.951 78.1762C36.0192 76.484 30.4493 73.4618 25.6364 68C31.3765 72.2875 40.0398 76.75 54 76.75C67.9602 76.75 76.6235 72.2875 82.3636 68C77.5507 73.4618 71.9808 76.484 67.049 78.1762L69.9545 82C69.9545 82 83.8492 81.9178 93 71.5C91.4418 45.9937 82.3636 33 82.3636 33ZM42.4773 64.5C39.0506 64.5 36.2727 61.3657 36.2727 57.5C36.2727 53.6343 39.0506 50.5 42.4773 50.5C45.904 50.5 48.6818 53.6343 48.6818 57.5C48.6818 61.3657 45.904 64.5 42.4773 64.5ZM65.5227 64.5C62.096 64.5 59.3182 61.3657 59.3182 57.5C59.3182 53.6343 62.096 50.5 65.5227 50.5C68.9494 50.5 71.7273 53.6343 71.7273 57.5C71.7273 61.3657 68.9494 64.5 65.5227 64.5Z" fill="white"/>
</svg>
