<svg width="425" height="212" viewBox="0 0 425 212" fill="none" xmlns="http://www.w3.org/2000/svg">
<path d="M422.379 111.985C422.647 112.052 422.919 111.889 422.985 111.621L424.071 107.254C424.137 106.986 423.974 106.714 423.706 106.648C423.438 106.581 423.167 106.744 423.1 107.012L422.135 110.894L418.253 109.93C417.985 109.863 417.714 110.026 417.648 110.294C417.581 110.562 417.744 110.833 418.012 110.9L422.379 111.985ZM50.5 182.5L50.998 182.455L50.5 182.5ZM332.062 22.2773C311.531 4.04214 282.993 -1.8216 251.961 1.28806C220.927 4.39798 187.342 16.4856 156.632 34.2303C125.921 51.9754 98.0558 75.3943 78.4716 101.195C58.8912 126.99 47.5558 155.212 50.002 182.545L50.998 182.455C48.582 155.46 59.7739 127.481 79.2681 101.799C98.7587 76.1223 126.516 52.7867 157.132 35.0961C187.75 17.4051 221.198 5.37575 252.061 2.28308C282.925 -0.809839 311.147 5.03823 331.398 23.025L332.062 22.2773ZM50.002 182.545C50.663 189.93 52.4586 195.741 55.2896 200.146C58.1256 204.559 61.9851 207.537 66.7222 209.273C76.1626 212.731 89.0497 211.244 104.272 206.538C134.739 197.12 175.013 174.655 216.864 151.868C258.75 129.061 302.233 105.92 339.203 95.0626C357.688 89.6339 374.495 87.2912 388.635 89.5661C402.751 91.837 414.217 98.7088 422.072 111.758L422.928 111.242C414.908 97.9164 403.171 90.8917 388.794 88.5788C374.442 86.2698 357.468 88.656 338.921 94.1031C301.829 104.997 258.249 128.195 216.385 150.99C174.486 173.804 134.323 196.202 103.977 205.583C88.7932 210.277 76.1804 211.673 67.0662 208.334C62.5261 206.67 58.8446 203.828 56.1309 199.605C53.4122 195.375 51.6494 189.734 50.998 182.455L50.002 182.545ZM331.398 23.025C336.47 27.5303 339.571 31.5224 340.984 35.0398C342.387 38.5307 342.129 41.5492 340.479 44.1956C338.81 46.8729 335.679 49.2271 331.217 51.2662C326.764 53.3016 321.036 54.9998 314.242 56.3954C287.052 61.981 243.121 62.6581 196.583 61.0678C150.062 59.4781 100.988 55.6249 63.5427 52.1688C44.8204 50.4408 29.0063 48.8122 17.8729 47.6156C12.3063 47.0173 7.90986 46.527 4.9053 46.1863C3.40302 46.0159 2.2487 45.883 1.47006 45.7927C1.08073 45.7475 0.785324 45.713 0.587296 45.6897C0.488282 45.6781 0.413613 45.6693 0.363722 45.6635C0.338776 45.6605 0.320025 45.6583 0.307522 45.6568C0.301271 45.6561 0.296594 45.6555 0.293461 45.6552C0.290353 45.6548 0.288814 45.6546 0.22998 46.1511C0.171147 46.6477 0.172759 46.6479 0.17594 46.6482C0.179097 46.6486 0.183847 46.6492 0.190148 46.6499C0.202748 46.6514 0.221598 46.6536 0.246642 46.6566C0.29673 46.6625 0.371598 46.6713 0.470813 46.6829C0.669242 46.7062 0.965058 46.7408 1.3548 46.786C2.13428 46.8764 3.28945 47.0095 4.79263 47.1799C7.79897 47.5208 12.1973 48.0113 17.7661 48.6098C28.9035 49.8069 44.7227 51.436 63.4507 53.1645C100.906 56.6215 150 60.4765 196.549 62.0672C243.082 63.6574 287.123 62.9873 314.443 57.375C321.277 55.9712 327.085 54.2542 331.633 52.1757C336.173 50.1008 339.508 47.6422 341.328 44.7247C343.166 41.7763 343.42 38.418 341.912 34.667C340.416 30.9424 337.185 26.8275 332.062 22.2773L331.398 23.025Z" fill="white"/>
</svg>
