<svg width="210" height="210" viewBox="0 0 210 210" fill="none" xmlns="http://www.w3.org/2000/svg">
<g opacity="0.7" filter="url(#filter0_f_188_991)">
<rect x="28" y="28" width="154" height="154" rx="77" fill="#0094FF"/>
</g>
<rect x="28" y="28" width="154" height="154" rx="77" fill="#0094FF"/>
<path d="M65.92 127.272C68.688 127.272 70.24 125.656 70.72 123.384L68.672 122.968C68.384 124.568 67.392 125.544 65.936 125.544C63.856 125.544 62.736 123.768 62.736 121.288C62.736 118.744 63.888 117.064 65.888 117.064C67.456 117.064 68.4 118.088 68.592 119.704L70.704 119.4C70.4 116.984 68.784 115.368 65.952 115.368C62.544 115.368 60.608 117.768 60.608 121.304C60.608 124.744 62.352 127.272 65.92 127.272ZM72.6893 127H79.7133V125.304H74.7533V115.64H72.6893V127ZM89.2859 127H91.3819L87.1579 115.64H84.9179L80.6939 127H82.7899L83.8139 124.008H88.2619L89.2859 127ZM84.3579 122.44L85.6859 118.6C85.8139 118.232 85.9259 117.88 86.0219 117.384H86.0539C86.1499 117.88 86.2619 118.232 86.3899 118.6L87.7179 122.44H84.3579ZM95.1283 127V115.64H93.0643V127H95.1283ZM97.9393 127H99.7473V118.712C99.7473 118.248 99.7313 117.848 99.6833 117.464H99.7473C99.7793 117.736 99.9073 118.328 100.035 118.664L102.755 127H104.595L107.283 118.664C107.395 118.328 107.539 117.736 107.571 117.464H107.619C107.571 117.864 107.555 118.264 107.555 118.712V127H109.443V115.64H106.547L104.003 123.528C103.827 124.088 103.763 124.344 103.715 124.76H103.683C103.635 124.344 103.571 124.104 103.395 123.544L100.819 115.64H97.9393V127ZM61.408 143H63.28V135.608C63.28 134.984 63.28 134.536 63.248 134.104H63.28C63.456 134.568 63.68 135 63.968 135.528L68.304 143H70.624V131.64H68.752V139.064C68.752 139.672 68.768 140.12 68.784 140.536H68.752C68.592 140.088 68.352 139.592 68.048 139.08L63.776 131.64H61.408V143ZM80.8153 133.272V131.64H73.4393V143H75.5033V138.056H80.5433V136.424H75.5033V133.272H80.8153ZM90.8693 131.64H81.9253V133.32H85.3653V143H87.4293V133.32H90.8693V131.64Z" fill="white"/>
<path d="M124.808 143.68L125.552 143.224C124.292 141.532 123.752 139.972 123.752 138.088C123.752 136.204 124.292 134.692 125.552 133.048L124.832 132.616C123.548 134.032 122.72 135.988 122.72 138.052C122.72 140.116 123.524 142.144 124.808 143.68ZM129.532 136H128.032V135.196C128.032 134.464 128.284 134.128 128.896 134.128C129.088 134.128 129.316 134.152 129.532 134.188V133.312C129.304 133.252 129.052 133.228 128.764 133.228C127.696 133.228 127.012 133.96 127.012 135.052V136H125.908V136.84H127.012V142H128.032V136.84H129.532V136ZM131.856 137.368V136H130.908V142H131.928V139.432C131.928 138.712 131.952 137.908 132.528 137.332C132.816 137.044 133.224 136.864 133.848 136.864H133.896V135.868C133.824 135.856 133.752 135.856 133.68 135.856C132.768 135.856 132.144 136.528 131.856 137.368ZM139.785 138.58C139.785 136.78 138.849 135.856 137.229 135.856C135.513 135.856 134.505 137.068 134.505 139.072C134.505 141.052 135.525 142.144 137.241 142.144C138.453 142.144 139.329 141.568 139.749 140.476L138.909 140.104C138.645 140.836 138.081 141.244 137.313 141.244C136.245 141.244 135.537 140.476 135.525 139.3H139.785V138.58ZM138.753 138.472H135.525C135.549 137.344 136.149 136.66 137.205 136.66C138.189 136.66 138.753 137.236 138.753 138.34V138.472ZM146.207 138.58C146.207 136.78 145.271 135.856 143.651 135.856C141.935 135.856 140.927 137.068 140.927 139.072C140.927 141.052 141.947 142.144 143.663 142.144C144.875 142.144 145.751 141.568 146.171 140.476L145.331 140.104C145.067 140.836 144.503 141.244 143.735 141.244C142.667 141.244 141.959 140.476 141.947 139.3H146.207V138.58ZM145.175 138.472H141.947C141.971 137.344 142.571 136.66 143.627 136.66C144.611 136.66 145.175 137.236 145.175 138.34V138.472ZM147.075 143.68C148.359 142.144 149.163 140.116 149.163 138.052C149.163 135.988 148.335 134.032 147.051 132.616L146.331 133.048C147.591 134.692 148.131 136.204 148.131 138.088C148.131 139.972 147.591 141.532 146.331 143.224L147.075 143.68Z" fill="white"/>
<defs>
<filter id="filter0_f_188_991" x="0" y="0" width="210" height="210" filterUnits="userSpaceOnUse" color-interpolation-filters="sRGB">
<feFlood flood-opacity="0" result="BackgroundImageFix"/>
<feBlend mode="normal" in="SourceGraphic" in2="BackgroundImageFix" result="shape"/>
<feGaussianBlur stdDeviation="14" result="effect1_foregroundBlur_188_991"/>
</filter>
</defs>
</svg>
