<svg width="108" height="108" viewBox="0 0 108 108" fill="none" xmlns="http://www.w3.org/2000/svg">
<path d="M86 34.1551C83.6444 35.2011 81.114 35.905 78.4581 36.2224C81.1707 34.5981 83.2506 32.0263 84.2302 28.9598C81.6949 30.4635 78.884 31.5562 75.8909 32.1469C73.4959 29.5948 70.0843 28 66.3084 28C59.057 28 53.1791 33.8795 53.1791 41.1274C53.1791 42.1561 53.2973 43.1602 53.5188 44.1176C42.6072 43.5712 32.9337 38.3439 26.4552 30.3995C25.3279 32.3389 24.6805 34.5932 24.6805 37.0026C24.6805 41.5556 26.9967 45.5745 30.5191 47.9273C28.3678 47.8584 26.342 47.2677 24.5722 46.2858C24.5722 46.3424 24.5722 46.3941 24.5722 46.4507C24.5722 52.8125 29.0963 58.1186 35.1047 59.3221C34.0045 59.6223 32.8427 59.7823 31.6439 59.7823C30.7997 59.7823 29.9751 59.6986 29.1751 59.5485C30.8464 64.7635 35.6955 68.5609 41.4405 68.6668C36.9483 72.1885 31.287 74.2878 25.1334 74.2878C24.075 74.2878 23.0289 74.2263 22 74.1033C27.8115 77.8269 34.7109 80 42.1272 80C66.2789 80 79.4821 59.9964 79.4821 42.6483C79.4821 42.0798 79.4698 41.5137 79.4452 40.9502C82.0125 39.097 84.2401 36.786 86 34.1551Z" fill="white"/>
</svg>
