<svg width="129" height="40" viewBox="0 0 129 40" fill="none" xmlns="http://www.w3.org/2000/svg">
<path d="M82.5957 32.3046C89.654 32.3046 91.4953 30.5316 91.4953 25.11V23.4051C91.4953 19.9612 89.8927 18.4609 86.2442 17.4038L80.6521 15.7671C79.0495 15.2897 78.5721 14.7783 78.5721 13.8576C78.5721 12.6642 79.6633 11.8458 81.5386 11.8458C83.755 11.8458 84.8121 13.0734 85.1871 15.1533L85.2894 15.733H91.5294L91.4612 14.8124C91.052 9.28848 89.4835 8.02686 81.675 8.02686H80.3793C72.6732 8.02686 70.8319 9.86815 70.8319 14.7101V16.1422C70.8319 19.9612 72.605 21.7002 76.6626 22.8254L82.016 24.2916C83.6527 24.7349 84.0619 25.2123 84.0619 26.2693C84.0619 27.565 83.0049 28.4175 81.3 28.4175C78.9472 28.4175 77.7879 27.1558 77.3787 24.9736L77.2423 24.2575H70.7637L70.8319 25.1782C71.2751 31.0089 72.8777 32.3046 80.9931 32.3046H82.5957Z" fill="white"/>
<path d="M111.777 15.051H103.764L99.877 21.9047H99.7406V8.23144H92.1026V32.1001H99.7406V24.769H99.877L103.628 32.1001H111.845L107.072 23.2346L111.777 15.051Z" fill="white"/>
<path d="M117.381 39.0962C117.892 39.0962 118.335 39.0621 118.745 38.9598C119.256 38.8234 119.699 38.5847 120.04 38.346C121.336 37.4594 122.052 35.9591 122.564 34.4247L128.974 15.0229H122.802L120.347 22.695H120.211L117.381 15.0229H109.572L116.699 33.2654C116.017 34.6975 115.335 34.9703 113.698 34.9703H111.857V39.0962H117.381Z" fill="white"/>
<path d="M29.6253 31.9663V14.9173H21.9873V31.9663H29.6253Z" fill="white"/>
<path d="M42.1701 38.138C47.4553 38.138 50.1491 36.2285 50.1491 30.841V14.9173H42.5793V16.6563H42.4429C41.3859 15.2923 40.1243 14.7127 37.6692 14.7127H36.6122C32.5545 14.7127 30.2017 16.554 30.2017 21.1231C30.2017 21.9415 30.2358 22.3165 30.2358 23.1349C30.2358 24.0896 30.2017 24.6352 30.2017 25.3854C30.2017 29.7499 32.9637 31.6935 37.1236 31.6935C39.7151 31.6935 41.6587 31.0456 42.5793 29.4771H42.7157V31.182C42.7157 33.0233 42.4088 34.1826 40.2947 34.1826C38.999 34.1826 38.2489 33.5348 38.0102 32.5118H30.4404C31.0883 36.7741 33.4069 38.138 38.3512 38.138H42.1701ZM39.9538 27.3971C38.5557 27.3971 38.0443 26.3742 38.0443 24.7375V21.1913C38.0443 19.4864 38.5216 18.668 39.9538 18.668C41.5223 18.668 42.7157 20.4752 42.7157 22.7939V23.2713C42.7157 25.5899 41.5223 27.3971 39.9538 27.3971Z" fill="white"/>
<path d="M69.7658 17.8156C69.0157 15.5992 66.7993 14.7127 64.4124 14.7127C62.0938 14.7127 59.9115 15.4969 58.6499 17.3382H58.4794V8.09766L50.8414 8.09766V31.9663H58.5135V24.0896C58.5135 22.5552 58.7863 21.3618 59.3659 20.5434C59.9115 19.7251 60.6617 19.4182 61.2754 19.4182C61.9233 19.4182 62.4348 19.8274 62.4348 20.9526C62.4348 22.7939 62.4007 24.1237 62.4007 25.7945C62.4007 28.3519 62.4348 30.125 62.4348 31.9663H70.0386V20.6798C70.0386 19.2477 69.9704 18.4294 69.7658 17.8156Z" fill="white"/>
<path d="M7.97894 32.0717L7.97894 22.6266H13.2982V32.0717H21.2772V8.20312H13.2982V17.6142H7.97894V8.20312H0L0 32.0717H7.97894Z" fill="white"/>
<path d="M21.8125 0H29.5858V8.11122H21.8125V0Z" fill="#45A1E3"/>
</svg>
